<svg xmlns="http://www.w3.org/2000/svg" viewBox="0 0 32 32" x="0px" y="0px"><title>old radio-radio-fm-multimedia-sound-music-</title><g data-name="Layer 21"><circle fill="#e9e9e9" cx="11" cy="24" r="1"/><circle fill="#e9e9e9" cx="21" cy="24" r="1"/><path fill= "#e9e9e9" d="M27,6.75H11a2.96457,2.96457,0,0,0-.18427-1H22.89a1.46727,1.46727,0,0,0,1.11.5,1.5,1.5,0,0,0,0-3,1.46727,1.46727,0,0,0-1.11.5H8a3.00328,3.00328,0,0,0-3,3,3.99887,3.99887,0,0,0-4,4V25a3.99891,3.99891,0,0,0,4,4H27a3.99891,3.99891,0,0,0,4-4V10.75A3.99887,3.99887,0,0,0,27,6.75ZM11,27a3,3,0,1,1,3-3A3.00883,3.00883,0,0,1,11,27Zm10,0a3,3,0,1,1,3-3A3.00883,3.00883,0,0,1,21,27Zm6-10.25a2.00591,2.00591,0,0,1-2,2V17a1,1,0,0,0-2,0v1.75H21V17a1,1,0,0,0-2,0v1.75H17V16a1,1,0,0,0-2,0v2.75H13V16a1,1,0,0,0-2,0v2.75H9V17a1,1,0,0,0-2,0v1.75a2.00591,2.00591,0,0,1-2-2v-4a2.00587,2.00587,0,0,1,2-2H25a2.00587,2.00587,0,0,1,2,2Z"/></g><text x="0" y="47" fill="#e9e9e9" font-size="5px" font-weight="bold" font-family="'Helvetica Neue', Helvetica, Arial-Unicode, Arial, Sans-serif">Created by Braja Omar Justico</text><text x="0" y="52" fill="#e9e9e9" font-size="5px" font-weight="bold" font-family="'Helvetica Neue', Helvetica, Arial-Unicode, Arial, Sans-serif">from the Noun Project</text></svg>